<?xml-stylesheet type="text/css" href="/assets/style/app.css" ?>
<svg preserveAspectRatio="xMidYMid" overflow="hidden" viewBox="0 0 24 24" xmlns="http://www.w3.org/2000/svg">
    <path fill="currentColor" d="M2.28.008a2.096 2.096 0 00-.726.063 2.096 2.096 0 00-.94.543 2.096 2.096 0 000 2.965L9.035 12 .614 20.422a2.096 2.096 0 000 2.964 2.096 2.096 0 002.964 0L12 14.965l8.421 8.421a2.096 2.096 0 002.965 0 2.096 2.096 0 000-2.964L14.965 12l8.42-8.421a2.096 2.096 0 000-2.965 2.096 2.096 0 00-2.024-.543 2.096 2.096 0 00-.94.543L12 9.035 3.578.615a2.096 2.096 0 00-1.3-.607z" fill-rule="evenodd"/>
</svg>