<?xml-stylesheet type="text/css" href="/assets/style/app.css" ?>
<svg preserveAspectRatio="xMidYMid" overflow="hidden" viewBox="0 0 24 24" xmlns="http://www.w3.org/2000/svg">
    <path fill="currentColor" d="M14.4 17.361H9.394V15.14h.729v-2.623h-.729v-2.222h4.393v4.845h.611zM9.817 8.3q0-.575.59-.925.582-.35 1.442-.35.881 0 1.42.365.532.371.532.903 0 .576-.554.91-.56.343-1.413.343-.866 0-1.442-.313-.575-.306-.575-.933zM12 0C5.389 0 0 5.388 0 12s5.389 12 12 12 12-5.388 12-12S18.611 0 12 0zm0 2.671A9.31 9.31 0 0121.329 12 9.31 9.31 0 0112 21.329 9.31 9.31 0 012.671 12 9.309 9.309 0 0112 2.671z"/>
</svg>